<?xml version="1.0" standalone="no"?><!DOCTYPE svg PUBLIC "-//W3C//DTD SVG 1.1//EN" "http://www.w3.org/Graphics/SVG/1.1/DTD/svg11.dtd"><svg t="1686714401883" class="icon" viewBox="0 0 1024 1024" version="1.1" xmlns="http://www.w3.org/2000/svg" p-id="4022" xmlns:xlink="http://www.w3.org/1999/xlink" width="200" height="200"><path d="M32 768h192v64H32zM32 512h128v64H32zM32 256h128v64H32zM480 512c0 70.4 57.6 128 128 128s128-57.6 128-128c0-44.8-23.2-84-57.6-106.4l80-211.2c30.4 0 52.8-0.8 74.4-0.8 26.4-0.8 52.8-0.8 95.2-0.8v-64c-43.2 0-69.6 0.8-96.8 0.8-26.4 0.8-52.8 0.8-95.2 0.8h-22.4l-96 255.2c-3.2 0-6.4-0.8-9.6-0.8-70.4-0.8-128 56.8-128 127.2z m128-64c35.2 0 64 28.8 64 64s-28.8 64-64 64-64-28.8-64-64 28.8-64 64-64z" p-id="4023" fill="#bbb6f1" data-spm-anchor-id="a313x.7781069.0.i1" class=""></path><path d="M960 512h-160v64h121.6c-29.6 145.6-159.2 256-313.6 256-176.8 0-320-143.2-320-320 0-154.4 110.4-284 256-313.6v-64.8C362.4 164 224 321.6 224 512c0 212 172 384 384 384s384-172 384-384h-32z" p-id="4024" fill="#d1dbf9" data-spm-anchor-id="a313x.7781069.0.i3" class=""></path></svg>